{"title":"Abrraham Lincoln:Vampire Hunter(2012)MPEG-4[DaScubaDude]","uid":15169817,"size":1153823526,"categoryP":"video","categoryS":"movies","magnet":"?xt=urn:btih:6eaf2497bdf65d1466ea72963745f013e60d1814&amp;dn=Abrraham+Lincoln%3AVampire+Hunter%282012%29MPEG-4%5BDaScubaDude%5D&amp;tr=udp%3A%2F%2Ftracker.leechers-paradise.org%3A6969&amp;tr=udp%3A%2F%2Fzer0day.ch%3A1337&amp;tr=udp%3A%2F%2Fopen.demonii.com%3A1337&amp;tr=udp%3A%2F%2Ftracker.coppersurfer.tk%3A6969&amp;tr=udp%3A%2F%2Fexodus.desync.com%3A6969","seeders":0,"leechers":1,"uploader":"dascuba","files":1,"time":1467385718,"description":"Abraham Lincoln: Vampire Hunter (2012)\r\nR | 1h 45min | Action, Fantasy, Horror | 22 June 2012 (USA)\r\nAbraham Lincoln, the 16th President of the United States, discovers vampires are planning to take over the United States. He makes it his mission to eliminate them.\r\nDirector: Timur Bekmambetov\r\nWriters: Seth Grahame-Smith (screenplay), Seth Grahame-Smith (based on the novel by)\r\nStars: Benjamin Walker, Rufus Sewell, Dominic Cooper \r\n\r\nGeneral\r\nComplete name                            : Vampire HunterABRAHAM_LINCOLN_VAMPIRE_HUNTER_Title4.mp4\r\nFormat                                   : MPEG-4\r\nFormat profile                           : Base Media\r\nCodec ID                                 : isom (isom/iso2/avc1/mp41)\r\nFile size                                : 1.07 GiB\r\nDuration                                 : 1h 44mn\r\nOverall bit rate                         : 1 466 Kbps\r\nMovie name                               : ABRAHAM_LINCOLN_VAMPIRE_HUNTER\r\nGenre                                    : Fantasy\r\nWriting application                      : Lavf54.6.100\r\n\r\nVideo\r\nID                                       : 1\r\nFormat                                   : AVC\r\nFormat/Info                              : Advanced Video Codec\r\nFormat profile                           :   \r\nFormat settings, CABAC                   : No\r\nFormat settings, ReFrames                : 6 frames\r\nCodec ID                                 : avc1\r\nCodec ID/Info                            : Advanced Video Coding\r\nDuration                                 : 1h 44mn\r\nBit rate                                 : 1 203 Kbps\r\nWidth                                    : 720 pixels\r\nHeight                                   : 404 pixels\r\nDisplay aspect ratio                     : 16:9\r\nFrame rate mode                          : Constant\r\nFrame rate                               : 29.970 (30000/1001) fps\r\nColor space                              : YUV\r\nChroma subsampling                       : 4:2:0\r\nBit depth                                : 8 bits\r\nScan type                                : Progressive\r\nBits/(Pixel*Frame)                       : 0.138\r\nStream size                              : 903 MiB (82%)\r\n\r\nAudio\r\nID                                       : 2\r\nFormat                                   : AAC\r\nFormat/Info                              : Advanced Audio Codec\r\nFormat profile                           : LC\r\nCodec ID                                 : 40\r\nDuration                                 : 1h 44mn\r\nBit rate mode                            : Constant\r\nBit rate                                 : 256 Kbps\r\nChannel(s)                               : 2 channels\r\nChannel(s)_Original                      : 6 channels\r\nChannel positions                        : Front: L C R, Side: L R, LFE\r\nSampling rate                            : 44.1 KHz\r\nFrame rate                               : 43.066 fps (1024 spf)\r\nCompression mode                         : Lossy\r\nStream size                              : 192 MiB (17%)\r\nDefault                                  : Yes\r\nAlternate group                          : 1","torrent":{"xt":"urn:btih:6eaf2497bdf65d1466ea72963745f013e60d1814","amp;dn":"Abrraham+Lincoln%3AVampire+Hunter%282012%29MPEG-4%5BDaScubaDude%5D","amp;tr":["udp%3A%2F%2Ftracker.leechers-paradise.org%3A6969","udp%3A%2F%2Fzer0day.ch%3A1337","udp%3A%2F%2Fopen.demonii.com%3A1337","udp%3A%2F%2Ftracker.coppersurfer.tk%3A6969","udp%3A%2F%2Fexodus.desync.com%3A6969"],"infoHash":"6eaf2497bdf65d1466ea72963745f013e60d1814","infoHashBuffer":{"type":"Buffer","data":[110,175,36,151,189,246,93,20,102,234,114,150,55,69,240,19,230,13,24,20]},"announce":[],"urlList":[]}}